<svg width="64" height="64" viewBox="0 0 64 64" fill="none" xmlns="http://www.w3.org/2000/svg">
<path d="M29.4673 39.8673L24.534 44.8007C23.494 45.8407 21.8406 45.8407 20.774 44.8273C20.4807 44.534 20.1873 44.2673 19.894 43.974C17.1473 41.2007 14.6673 38.294 12.454 35.254C10.2673 32.214 8.50732 29.174 7.22732 26.1607C5.97398 23.1207 5.33398 20.214 5.33398 17.4407C5.33398 15.6273 5.65398 13.894 6.29398 12.294C6.93398 10.6673 7.94732 9.17398 9.36065 7.84065C11.0673 6.16065 12.934 5.33398 14.9073 5.33398C15.654 5.33398 16.4007 5.49398 17.0673 5.81398C17.7607 6.13398 18.374 6.61398 18.854 7.30732L25.0407 16.0273C25.5207 16.694 25.8673 17.3073 26.1073 17.894C26.3473 18.454 26.4807 19.014 26.4807 19.5207C26.4807 20.1607 26.294 20.8007 25.9207 21.414C25.574 22.0273 25.0673 22.6673 24.4273 23.3073L22.4006 25.414C22.1073 25.7073 21.974 26.054 21.974 26.4807C21.974 26.694 22.0007 26.8807 22.054 27.094C22.134 27.3073 22.214 27.4673 22.2673 27.6273C22.7473 28.5073 23.574 29.654 24.7473 31.0407C25.9473 32.4273 27.2273 33.8407 28.614 35.254C28.8806 35.5207 29.174 35.7873 29.4406 36.054C30.5073 37.094 30.534 38.8007 29.4673 39.8673Z" fill="#292D32"/>
<path d="M58.5863 48.8795C58.5863 49.6261 58.4529 50.3995 58.1863 51.1461C58.1063 51.3595 58.0263 51.5728 57.9196 51.7861C57.4663 52.7461 56.8796 53.6528 56.1063 54.5061C54.7996 55.9461 53.3596 56.9861 51.7329 57.6528C51.7063 57.6528 51.6796 57.6795 51.6529 57.6795C50.0796 58.3195 48.3729 58.6661 46.5329 58.6661C43.8129 58.6661 40.9063 58.0261 37.8396 56.7195C34.7729 55.4128 31.7063 53.6528 28.6663 51.4395C27.6263 50.6661 26.5863 49.8928 25.5996 49.0661L34.3196 40.3461C35.0663 40.9061 35.7329 41.3328 36.2929 41.6261C36.4263 41.6795 36.5863 41.7595 36.7729 41.8395C36.9863 41.9195 37.1996 41.9461 37.4396 41.9461C37.8929 41.9461 38.2396 41.7861 38.5329 41.4928L40.5596 39.4928C41.2263 38.8261 41.8663 38.3195 42.4796 37.9995C43.0929 37.6261 43.7063 37.4395 44.3729 37.4395C44.8796 37.4395 45.4129 37.5461 45.9996 37.7861C46.5863 38.0261 47.1996 38.3728 47.8663 38.8261L56.6929 45.0928C57.3863 45.5728 57.8663 46.1328 58.1596 46.7995C58.4263 47.4661 58.5863 48.1328 58.5863 48.8795Z" fill="#292D32"/>
</svg>
