<svg width="43" height="42" viewBox="0 0 43 42" fill="none" xmlns="http://www.w3.org/2000/svg">
<path d="M33.2936 25.6067C38.1552 25.6067 42.0964 21.6655 42.0964 16.8038C42.0964 11.9422 38.1552 8.00098 33.2936 8.00098C28.4319 8.00098 24.4907 11.9422 24.4907 16.8038C24.4907 21.6655 28.4319 25.6067 33.2936 25.6067Z" fill="url(#paint0_radial_981_2283)"/>
<path d="M21.9652 21.8984C22.0947 22.5758 22.1669 23.2743 22.1669 23.9878C22.1669 30.0631 17.2417 34.9913 11.1634 34.9913C7.48151 34.9913 4.22109 33.179 2.2251 30.4002C5.67518 37.2763 12.7861 41.9999 21.0019 41.9999C30.6206 41.9999 38.7249 35.5302 41.2117 26.7063C39.0772 28.4464 36.3556 29.4911 33.3872 29.4911C28.2452 29.4911 23.8378 26.3601 21.9652 21.8984Z" fill="url(#paint1_linear_981_2283)"/>
<path d="M11.1631 12.9845C15.6789 12.9845 19.5595 15.7061 21.2544 19.6017C21.0889 18.7949 21.0016 17.9579 21.0016 17.103C21.0016 10.263 26.547 4.71754 33.3869 4.71754C33.697 4.71754 34.0041 4.73259 34.3112 4.75667C30.6865 1.78526 26.0532 0 21.0016 0C9.40193 0 0 9.40196 0 21.0016C0 21.8897 0.0602101 22.7628 0.16859 23.6208C0.364275 17.7171 5.20824 12.9875 11.1631 12.9875V12.9845Z" fill="url(#paint2_radial_981_2283)"/>
<defs>
<radialGradient id="paint0_radial_981_2283" cx="0" cy="0" r="1" gradientUnits="userSpaceOnUse" gradientTransform="translate(33.2936 16.8038) scale(8.80283 8.80286)">
<stop offset="0.18" stop-color="#F4BA19"/>
<stop offset="1" stop-color="#EF7E21"/>
</radialGradient>
<linearGradient id="paint1_linear_981_2283" x1="21.7184" y1="39.9828" x2="21.7184" y2="19.8814" gradientUnits="userSpaceOnUse">
<stop offset="0.39" stop-color="#003B20"/>
<stop offset="0.79" stop-color="#11562E"/>
</linearGradient>
<radialGradient id="paint2_radial_981_2283" cx="0" cy="0" r="1" gradientUnits="userSpaceOnUse" gradientTransform="translate(17.1571 11.8074) scale(14.7276 14.7276)">
<stop offset="0.22" stop-color="#359839"/>
<stop offset="0.32" stop-color="#308B37"/>
<stop offset="0.55" stop-color="#277535"/>
<stop offset="0.78" stop-color="#226733"/>
<stop offset="0.97" stop-color="#216333"/>
</radialGradient>
</defs>
</svg>
