<?xml version="1.0" encoding="UTF-8"?>
<svg id="_레이어_1" data-name="레이어 1" xmlns="http://www.w3.org/2000/svg" xmlns:xlink="http://www.w3.org/1999/xlink" viewBox="0 0 887.72 302.68">
  <defs>
    <style>
      .cls-1 {
        fill: #231815;
      }

      .cls-2 {
        fill: url(#_무제_그라디언트_9);
      }

      .cls-3 {
        fill: url(#_무제_그라디언트_19);
      }

      .cls-4 {
        fill: url(#_무제_그라디언트_32);
      }
    </style>
    <radialGradient id="_무제_그라디언트_9" data-name="무제 그라디언트 9" cx="216.49" cy="138.57" fx="216.49" fy="138.57" r="29.24" gradientUnits="userSpaceOnUse">
      <stop offset=".18" stop-color="#f4ba19"/>
      <stop offset="1" stop-color="#ef7e21"/>
    </radialGradient>
    <linearGradient id="_무제_그라디언트_19" data-name="무제 그라디언트 19" x1="178.04" y1="215.56" x2="178.04" y2="148.79" gradientUnits="userSpaceOnUse">
      <stop offset=".39" stop-color="#003b20"/>
      <stop offset=".79" stop-color="#11562e"/>
    </linearGradient>
    <radialGradient id="_무제_그라디언트_32" data-name="무제 그라디언트 32" cx="162.89" cy="121.97" fx="175.76" fy="132.46" r="48.92" gradientUnits="userSpaceOnUse">
      <stop offset=".22" stop-color="#359839"/>
      <stop offset=".32" stop-color="#308b37"/>
      <stop offset=".55" stop-color="#277535"/>
      <stop offset=".78" stop-color="#226733"/>
      <stop offset=".97" stop-color="#216333"/>
    </radialGradient>
  </defs>
  <g>
    <circle class="cls-2" cx="216.49" cy="138.57" r="29.24"/>
    <path class="cls-3" d="M178.86,155.49c.43,2.25.67,4.57.67,6.94,0,20.18-16.36,36.55-36.55,36.55-12.23,0-23.06-6.02-29.69-15.25,11.46,22.84,35.08,38.53,62.37,38.53,31.95,0,58.87-21.49,67.13-50.8-7.09,5.78-16.13,9.25-25.99,9.25-17.08,0-31.72-10.4-37.94-25.22Z"/>
    <path class="cls-4" d="M142.98,125.88c15,0,27.89,9.04,33.52,21.98-.55-2.68-.84-5.46-.84-8.3,0-22.72,18.42-41.14,41.14-41.14,1.03,0,2.05.05,3.07.13-12.04-9.87-27.43-15.8-44.21-15.8-38.53,0-69.76,31.23-69.76,69.76,0,2.95.2,5.85.56,8.7.65-19.61,16.74-35.32,36.52-35.32Z"/>
  </g>
  <g>
    <g>
      <path class="cls-1" d="M438.43,162.14c-.93-.25-2.95-3.28-1.85-3.45,7.58-1.09,21.47-13.47,31.15-27.61h-14.73c-1.43,0-4.63.93-5.89.93-1.6,0-6.23-2.95-7.24-3.54,0-.42.51-2.86,1.01-2.78.76.08,7.74.51,12.04.51h14.98c1.52,0,3.62-.67,4.63-.67,1.09,0,4.04.34,5.3.67.67.17,1.09,1.35,1.09,2.02,0,.59-1.09,2.02-1.77,2.95-2.78,4.04-5.72,7.83-8.84,11.28l2.1,1.85c2.27,2.02,5.05,3.79,6.82,5.39,1.68,1.52,3.79,4.55,4.46,5.98.84,1.52-2.86,3.37-3.87,3.62-3.37-3.54-8.08-8.92-12.8-13.39-9.26,9.26-19.03,15.24-26.6,16.25ZM456.87,120.72c-1.6-.08-6.4-3.45-7.91-4.63.08-1.35.67-2.86,1.18-2.78,1.26.17,6.4,1.09,9.26,1.26l12.12.67c.84.08,1.35,3.37,0,5.05-3.2.25-11.11.67-14.65.42ZM497.95,177.37c0,9.26-7.07,15.91-17.93,15.91s-17.93-6.65-17.93-15.91,7.16-16,17.93-16,17.93,6.65,17.93,16ZM490.88,177.37c0-6.4-4.55-10.52-10.86-10.52s-10.78,4.13-10.78,10.52,4.55,10.44,10.78,10.44,10.86-4.13,10.86-10.44ZM501.07,115.67c0,.84-.25,3.28-.25,4.63l-.17,29.55c0,5.64-1.6,11.87-2.86,13.64h-3.2c-.84-1.6-1.52-6.31-1.52-10.94v-9.18l-5.81.08c-1.1,0-3.62.76-4.63.76-1.09,0-4.97-2.19-6.31-3.11,0-1.6.51-2.78,1.18-2.78.51,0,6.23.42,9.77.25l5.81-.08v-18.35c0-1.09-.59-1.68-1.18-2.19l-4.72-3.62c.25-1.43,1.26-3.11,1.94-3.11,2.19,0,8.59,1.68,10.78,2.69.93.42,1.18.84,1.18,1.77Z"/>
      <path class="cls-1" d="M531.96,156.58c-3.37.25-6.65,1.01-8.25,1.01-1.43,0-6.57-2.53-8.59-3.87,0-1.6.76-3.2,1.43-3.2.59,0,4.46.59,7.83.67,1.35.08,3.96.08,5.98.08,9.43-.25,27.11-1.6,36.54-3.79.51.59,1.09,3.03,1.09,4.46-5.22,1.18-13.05,2.36-20.71,3.28v3.03c0,3.87-1.85,9.18-4.88,11.45l-3.87-.76c.76-2.69,1.18-8,1.18-10.52v-2.44c-2.86.25-5.47.42-7.75.59ZM525.99,130.14c0-8.59,7.24-14.65,18.02-14.65s18.1,6.06,18.1,14.65-7.24,14.65-18.1,14.65-18.02-6.15-18.02-14.65ZM533.14,130.14c0,5.56,4.63,9.09,10.86,9.09s10.86-3.54,10.86-9.09-4.55-9.18-10.86-9.18-10.86,3.54-10.86,9.18ZM585.68,190.34h-35.78c-5.89,0-8.92-2.95-8.92-7.58v-5.3c0-.84-.17-1.1-.59-1.35l-3.11-1.85c0-.93.76-2.95,1.52-2.95,2.36,0,5.98.25,7.66.42,1.35.17,2.61.59,2.61,1.94l-.08,2.61v6.15c0,1.94.93,2.78,3.62,2.78h17.43c3.37,0,7.16-1.6,8.84-1.6,2.53,0,6.4.51,7.16,1.35s.76,4.29-.34,5.39ZM573.47,117.94l-4.63-3.7c.17-1.35,1.18-3.03,1.94-3.03,2.1,0,8.42,1.68,10.61,2.61.93.42,1.18.84,1.18,1.77,0,.84-.25,3.28-.25,4.63l-.17,41.5c0,5.64-1.68,12.04-2.95,13.81h-2.95c-.76-1.43-1.43-5.72-1.6-9.93l-7.74.17c-1.1,0-3.96.76-5.05.76-1.18,0-5.14-2.19-6.65-3.2,0-1.52.51-2.69,1.18-2.69.59,0,6.65.42,10.52.34l7.74-.17v-40.66c0-1.09-.59-1.68-1.18-2.19Z"/>
      <path class="cls-1" d="M672.81,156.24h-56.49c-2.53,0-7.58,1.35-8.42,1.35-1.68,0-7.66-2.36-10.61-4.04,0-1.26.51-3.45,1.35-3.45,1.68,0,10.52.84,17.68.84h15.83c-.17-1.52-.25-3.28-.34-4.46l-.08-5.89h-11.03c-5.81,0-8.42-2.61-8.42-8l.08-9.93c0-.67-.25-1.01-.76-1.26-1.18-.67-2.69-1.68-3.96-2.36.08-1.18.84-3.28,1.68-3.2,2.19.08,6.99.67,9.01,1.18,1.26.34,1.85.76,1.85,1.94l-.08,3.12v10.35c0,2.19.84,3.03,3.37,3.03h19.87c3.28,0,7.75-1.43,9.43-1.43,2.53.08,5.81.34,6.48,1.26.67.93.76,4.29-.34,5.22l-19.28.08-.08,5.05c-.08,1.1-.34,3.45-.67,5.3h17.34c3.54,0,6.99-1.52,8.67-1.52,2.53,0,7.58.93,8.17,1.77.76,1.26.42,4.13-.25,5.05ZM656.65,177.71c0,9.26-8.08,16.08-20.46,16.08s-20.46-6.82-20.46-16.08,8.17-16.08,20.46-16.08,20.46,6.73,20.46,16.08ZM649.58,177.71c0-6.4-5.64-10.61-13.39-10.61s-13.3,4.21-13.3,10.61,5.56,10.61,13.3,10.61,13.39-4.21,13.39-10.61Z"/>
      <path class="cls-1" d="M702.7,141.76c-6.65,9.93-15.66,18.94-22.81,20.29-.51-.34-3.2-2.53-2.44-2.86,9.51-4.38,21.13-23.15,24.16-33.17.51-1.6.59-2.02.08-2.44-.59-.67-2.1-1.94-3.03-2.78.42-.67,1.01-2.44,1.6-2.44,1.85,0,9.18,2.53,9.93,2.95.84.42,1.35,1.01,1.35,1.51.08.67-.08,1.43-.84,3.54-1.18,3.45-3.12,7.41-5.39,11.28l6.31,5.22c2.44,1.94,6.23,3.87,8,5.56,2.02,1.77,4.13,4.72,5.05,6.31.84,1.43-2.78,3.45-3.87,3.7-5.39-5.14-11.7-11.36-18.1-16.67ZM745.13,184.87c.76.84.76,4.38-.34,5.47h-35.78c-5.89,0-8.92-2.95-8.92-7.58v-11.2c0-.84-.17-1.1-.59-1.35l-3.11-1.85c0-.93.76-2.95,1.52-2.95,2.36,0,5.98.25,7.66.42,1.35.17,2.61.59,2.61,1.94l-.08,2.61v11.95c0,2.02.93,2.78,3.62,2.78h17.43c3.37,0,7.16-1.6,8.84-1.6,2.53,0,6.4.51,7.16,1.35ZM755.74,145.47h-15.24l-.08,11.7c0,5.64-1.68,12.04-2.95,13.81h-3.11c-.84-1.6-1.6-6.48-1.6-11.11v-39.74c0-1.09-.59-1.68-1.18-2.19l-4.63-3.7c.25-1.35,1.18-3.03,1.94-3.03,2.11,0,8.59,1.68,10.78,2.61.93.42,1.18.84,1.18,1.77,0,.84-.25,3.28-.25,4.63l-.08,20.37h.93c3.28,0,6.57-1.77,8.25-1.77,2.02,0,5.22.51,6.06,1.18.93.59.84,4.04,0,5.47Z"/>
    </g>
    <g>
      <path class="cls-1" d="M319.08,114.96c.73.15,1.54.66,1.98,1.1.44.44.59,1.03.37,1.39-7.71,5.14-12.77,15.63-12.77,34.2s5.06,29.06,12.77,34.2c.37,1.1-1.61,2.5-2.35,2.5-11.38-6.61-16.66-17.91-16.66-36.7s5.28-30.09,16.66-36.7Z"/>
      <path class="cls-1" d="M391.81,163.54h-28.62l-.07,15.71c0,3.67-1.1,9.32-2.2,10.79h-3.08c-.73-1.32-1.39-5.14-1.39-8.81v-17.69h-13.87c-2.2,0-6.61,1.17-7.34,1.17-1.47,0-6.68-1.98-9.25-3.45,0-1.1.44-3.01,1.17-3.01,1.47,0,9.17.73,15.41.73h34.79c3.08,0,6.09-1.39,7.56-1.39,2.2,0,6.61.81,7.12,1.61.66,1.1.37,3.52-.22,4.33ZM330.46,149.38c9.61-1.1,27.74-12.18,36.25-19.74h-15.19c-2.86,0-4.55,1.03-6.46,1.03s-8.15-2.86-8.66-3.23c0-.66.59-2.94.95-2.94.73,0,8.59.59,13.8.59h15.71c2.2,0,4.62-.59,5.43-.59,1.54,0,4.4.73,5.21.95.66.15.95.88.95,1.47,0,.73-.73,1.61-1.32,2.2-3.52,3.38-7.63,6.75-11.96,9.76l5.8,1.76c2.72.88,6.09,1.03,8,1.83,2.05.88,6.31,3.01,7.12,4.26.73,1.25-1.32,3.38-2.13,3.89-6.83-2.72-15.12-5.8-23.27-8.81-9.98,6.24-20.77,10.57-28.62,10.5-.66-.07-2.79-1.98-1.61-2.94Z"/>
      <path class="cls-1" d="M399.3,188.35c-.73,0-2.72-1.39-2.35-2.5,7.71-5.14,12.77-15.63,12.77-34.2s-5.06-29.06-12.77-34.2c-.22-.37-.15-.95.29-1.39s1.32-.95,2.05-1.1c11.38,6.61,16.66,17.91,16.66,36.7s-5.28,30.09-16.66,36.7Z"/>
    </g>
  </g>
</svg>