<svg width="64" height="64" viewBox="0 0 64 64" fill="none" xmlns="http://www.w3.org/2000/svg">
<path d="M52.9239 14.9192C52.9239 12.7922 51.2 11.0747 49.0809 11.0747C46.9617 11.0747 45.2363 12.7922 45.2363 14.9192C45.2363 17.0384 46.9617 18.7559 49.0809 18.7559C51.2 18.7559 52.9239 17.0384 52.9239 14.9192" fill="url(#paint0_linear_1012_3535)"/>
<path d="M58.0442 44.9292C57.9018 48.0494 57.3799 49.7447 56.9467 50.8707C56.3646 52.3636 55.6704 53.4311 54.5445 54.5508C53.4311 55.6704 52.3636 56.3631 50.8707 56.9387C49.7447 57.3784 48.043 57.9018 44.9229 58.0506C41.5496 58.1992 40.5501 58.2308 31.996 58.2308C23.4499 58.2308 22.4424 58.1992 19.0692 58.0506C15.949 57.9018 14.2553 57.3784 13.1292 56.9387C11.6284 56.3631 10.5689 55.6704 9.44924 54.5508C8.32162 53.4311 7.6274 52.3636 7.05333 50.8707C6.61994 49.7447 6.09023 48.0494 5.95572 44.9292C5.79133 41.5559 5.76121 40.5406 5.76121 32.004C5.76121 23.4499 5.79133 22.4424 5.95572 19.0692C6.09023 15.949 6.61994 14.2553 7.05333 13.1197C7.6274 11.6285 8.32162 10.5673 9.44924 9.44758C10.5689 8.32957 11.6284 7.63524 13.1292 7.05334C14.2553 6.61211 15.949 6.09652 19.0692 5.9479C22.4424 5.79917 23.4499 5.76121 31.996 5.76121C40.5501 5.76121 41.5496 5.79917 44.9229 5.9479C48.043 6.09652 49.7447 6.61211 50.8707 7.05334C52.3636 7.63524 53.4311 8.32957 54.5445 9.44758C55.6704 10.5673 56.3646 11.6285 56.9467 13.1197C57.3799 14.2553 57.9018 15.949 58.0442 19.0692C58.2007 22.4424 58.2387 23.4499 58.2387 32.004C58.2387 40.5406 58.2007 41.5559 58.0442 44.9292V44.9292ZM63.8055 18.8067C63.6489 15.397 63.1111 13.0675 62.3125 11.0386C61.4997 8.93365 60.41 7.14977 58.6262 5.36589C56.8502 3.58995 55.0663 2.50029 52.9614 1.67797C50.9245 0.887204 48.6029 0.343142 45.1917 0.194524C41.7805 0.0300135 40.6909 5.21342e-07 31.996 5.21342e-07C23.3091 5.21342e-07 22.2116 0.0300135 18.8004 0.194524C15.397 0.343142 13.077 0.887204 11.0307 1.67797C8.93365 2.50029 7.14976 3.58995 5.37383 5.36589C3.58995 7.14977 2.50028 8.93365 1.67951 11.0386C0.888739 13.0675 0.351083 15.397 0.186572 18.8067C0.0379549 22.2179 0 23.3091 0 32.004C0 40.6909 0.0379549 41.7805 0.186572 45.1917C0.351083 48.595 0.888739 50.9229 1.67951 52.9614C2.50028 55.0584 3.58995 56.8502 5.37383 58.6262C7.14976 60.4021 8.93365 61.4997 11.0307 62.3205C13.077 63.1111 15.397 63.6489 18.8004 63.8055C22.2116 63.962 23.3091 64 31.996 64C40.6909 64 41.7805 63.962 45.1917 63.8055C48.6029 63.6489 50.9245 63.1111 52.9614 62.3205C55.0663 61.4997 56.8502 60.4021 58.6262 58.6262C60.41 56.8502 61.4997 55.0584 62.3125 52.9614C63.1111 50.9229 63.6489 48.595 63.8055 45.1917C63.962 41.7805 64 40.6909 64 32.004C64 23.3091 63.962 22.2179 63.8055 18.8067V18.8067Z" fill="url(#paint1_linear_1012_3535)"/>
<path d="M31.9969 42.6605C26.1091 42.6605 21.3315 37.8908 21.3315 32.003C21.3315 26.1058 26.1091 21.3299 31.9969 21.3299C37.8863 21.3299 42.6701 26.1058 42.6701 32.003C42.6701 37.8908 37.8863 42.6605 31.9969 42.6605V42.6605ZM31.9969 15.5607C22.9209 15.5607 15.5703 22.927 15.5703 32.003C15.5703 41.0712 22.9209 48.4297 31.9969 48.4297C41.0728 48.4297 48.4314 41.0712 48.4314 32.003C48.4314 22.927 41.0728 15.5607 31.9969 15.5607Z" fill="url(#paint2_linear_1012_3535)"/>
<defs>
<linearGradient id="paint0_linear_1012_3535" x1="0.577673" y1="63.338" x2="58.6699" y2="5.24605" gradientUnits="userSpaceOnUse">
<stop stop-color="#FFD521"/>
<stop offset="0.05" stop-color="#FFD521"/>
<stop offset="0.501119" stop-color="#F50000"/>
<stop offset="0.95" stop-color="#B900B4"/>
<stop offset="0.950079" stop-color="#B900B4"/>
<stop offset="1" stop-color="#B900B4"/>
</linearGradient>
<linearGradient id="paint1_linear_1012_3535" x1="0.577271" y1="63.418" x2="58.7171" y2="5.27812" gradientUnits="userSpaceOnUse">
<stop stop-color="#FFD521"/>
<stop offset="0.05" stop-color="#FFD521"/>
<stop offset="0.501119" stop-color="#F50000"/>
<stop offset="0.95" stop-color="#B900B4"/>
<stop offset="0.950079" stop-color="#B900B4"/>
<stop offset="1" stop-color="#B900B4"/>
</linearGradient>
<linearGradient id="paint2_linear_1012_3535" x1="0.593181" y1="63.4187" x2="58.719" y2="5.29281" gradientUnits="userSpaceOnUse">
<stop stop-color="#FFD521"/>
<stop offset="0.05" stop-color="#FFD521"/>
<stop offset="0.501119" stop-color="#F50000"/>
<stop offset="0.95" stop-color="#B900B4"/>
<stop offset="0.950079" stop-color="#B900B4"/>
<stop offset="1" stop-color="#B900B4"/>
</linearGradient>
</defs>
</svg>
