<svg width="154" height="42" viewBox="0 0 154 42" fill="none" xmlns="http://www.w3.org/2000/svg">
<path d="M33.2936 25.6067C38.1552 25.6067 42.0964 21.6655 42.0964 16.8038C42.0964 11.9422 38.1552 8.00098 33.2936 8.00098C28.4319 8.00098 24.4907 11.9422 24.4907 16.8038C24.4907 21.6655 28.4319 25.6067 33.2936 25.6067Z" fill="url(#paint0_radial_981_2282)"/>
<path d="M21.9652 21.8984C22.0947 22.5758 22.1669 23.2743 22.1669 23.9878C22.1669 30.0631 17.2417 34.9913 11.1634 34.9913C7.48151 34.9913 4.22109 33.179 2.2251 30.4002C5.67518 37.2763 12.7861 41.9999 21.0019 41.9999C30.6206 41.9999 38.7249 35.5302 41.2117 26.7063C39.0772 28.4464 36.3556 29.4911 33.3872 29.4911C28.2452 29.4911 23.8378 26.3601 21.9652 21.8984Z" fill="url(#paint1_linear_981_2282)"/>
<path d="M11.1631 12.9845C15.6789 12.9845 19.5595 15.7061 21.2544 19.6017C21.0889 18.7949 21.0016 17.9579 21.0016 17.103C21.0016 10.263 26.547 4.71754 33.3869 4.71754C33.697 4.71754 34.0041 4.73259 34.3112 4.75667C30.6865 1.78526 26.0533 0 21.0016 0C9.40193 0 0 9.40196 0 21.0016C0 21.8897 0.0602101 22.7628 0.16859 23.6208C0.364275 17.7171 5.20824 12.9875 11.1631 12.9875V12.9845Z" fill="url(#paint2_radial_981_2282)"/>
<path d="M81.4938 24.3451C81.2836 24.2886 80.827 23.6037 81.0756 23.5653C82.789 23.3189 85.9288 20.5205 88.1169 17.3242H84.7873C84.464 17.3242 83.7407 17.5344 83.4559 17.5344C83.0942 17.5344 82.0476 16.8676 81.8193 16.7342C81.8193 16.6393 81.9346 16.0877 82.0476 16.1058C82.2194 16.1239 83.7972 16.2211 84.7692 16.2211H88.1553C88.4989 16.2211 88.9736 16.0697 89.2019 16.0697C89.4483 16.0697 90.1151 16.1465 90.3999 16.2211C90.5514 16.2595 90.6463 16.5263 90.6463 16.6777C90.6463 16.8111 90.3999 17.1343 90.2462 17.3445C89.6178 18.2578 88.9533 19.1145 88.248 19.8943L88.7227 20.3125C89.2358 20.7691 89.8642 21.1692 90.2643 21.5309C90.6441 21.8745 91.121 22.5594 91.2725 22.8826C91.4623 23.2262 90.626 23.6444 90.3977 23.7009C89.6359 22.9007 88.5712 21.6846 87.5043 20.6742C85.4111 22.7674 83.2027 24.1191 81.4915 24.3474L81.4938 24.3451ZM85.6621 14.9824C85.3004 14.9643 84.2154 14.2025 83.874 13.9358C83.8921 13.6306 84.0255 13.2893 84.1408 13.3074C84.4256 13.3458 85.5875 13.5538 86.2339 13.5922L88.9736 13.7437C89.1635 13.7617 89.2788 14.5054 88.9736 14.8852C88.2503 14.9417 86.4622 15.0366 85.6621 14.9801V14.9824ZM94.9479 27.7878C94.9479 29.881 93.3498 31.3842 90.895 31.3842C88.4401 31.3842 86.842 29.881 86.842 27.7878C86.842 25.6946 88.4605 24.1711 90.895 24.1711C93.3295 24.1711 94.9479 25.6743 94.9479 27.7878ZM93.3498 27.7878C93.3498 26.3411 92.3213 25.4098 90.895 25.4098C89.4686 25.4098 88.4582 26.3434 88.4582 27.7878C88.4582 29.2322 89.4867 30.1477 90.895 30.1477C92.3032 30.1477 93.3498 29.2141 93.3498 27.7878ZM95.6532 13.8409C95.6532 14.0307 95.5967 14.5823 95.5967 14.8874L95.5583 21.5671C95.5583 22.842 95.1966 24.2502 94.9118 24.6503H94.1884C93.9986 24.2886 93.8448 23.224 93.8448 22.1774V20.1023L92.5315 20.1204C92.2829 20.1204 91.7132 20.2922 91.4849 20.2922C91.2386 20.2922 90.3615 19.7971 90.0586 19.5892C90.0586 19.2275 90.1739 18.9608 90.3253 18.9608C90.4406 18.9608 91.7336 19.0557 92.5338 19.0173L93.8471 18.9992V14.8513C93.8471 14.6049 93.7137 14.4715 93.5804 14.3562L92.5134 13.538C92.57 13.2147 92.7983 12.835 92.952 12.835C93.447 12.835 94.8937 13.2147 95.3887 13.443C95.5989 13.538 95.6555 13.6329 95.6555 13.8431L95.6532 13.8409Z" fill="#182233"/>
<path d="M102.636 23.0886C101.874 23.1452 101.133 23.317 100.771 23.317C100.448 23.317 99.2862 22.7451 98.8296 22.4422C98.8296 22.0805 99.0014 21.7188 99.1528 21.7188C99.2862 21.7188 100.161 21.8522 100.923 21.8703C101.228 21.8884 101.818 21.8884 102.274 21.8884C104.406 21.8318 108.403 21.5267 110.534 21.0316C110.649 21.165 110.781 21.7166 110.781 22.0398C109.601 22.3065 107.831 22.5733 106.099 22.7812V23.4661C106.099 24.3409 105.681 25.5412 104.996 26.0544L104.121 25.8826C104.293 25.2745 104.388 24.0742 104.388 23.5046V22.953C103.742 23.0095 103.152 23.048 102.636 23.0864V23.0886ZM101.287 17.112C101.287 15.1703 102.923 13.8005 105.36 13.8005C107.797 13.8005 109.451 15.1703 109.451 17.112C109.451 19.0538 107.815 20.4236 105.36 20.4236C102.905 20.4236 101.287 19.0334 101.287 17.112ZM102.903 17.112C102.903 18.3688 103.949 19.1668 105.358 19.1668C106.766 19.1668 107.813 18.3666 107.813 17.112C107.813 15.8575 106.784 15.0369 105.358 15.0369C103.931 15.0369 102.903 15.8371 102.903 17.112ZM114.779 30.7199H106.691C105.36 30.7199 104.675 30.0531 104.675 29.0065V27.8085C104.675 27.6186 104.637 27.5598 104.542 27.5033L103.839 27.0851C103.839 26.8749 104.011 26.4183 104.182 26.4183C104.716 26.4183 105.534 26.4748 105.914 26.5132C106.219 26.5517 106.504 26.6466 106.504 26.9518L106.486 27.5417V28.9319C106.486 29.3704 106.696 29.5603 107.304 29.5603H111.244C112.006 29.5603 112.862 29.1986 113.242 29.1986C113.814 29.1986 114.689 29.3139 114.861 29.5038C115.032 29.6937 115.032 30.4735 114.784 30.7222L114.779 30.7199ZM112.019 14.3543L110.973 13.5179C111.011 13.2128 111.239 12.833 111.411 12.833C111.886 12.833 113.314 13.2128 113.81 13.423C114.02 13.5179 114.076 13.6129 114.076 13.8231C114.076 14.013 114.02 14.5645 114.02 14.8697L113.981 24.2505C113.981 25.5254 113.602 26.9721 113.314 27.3722H112.648C112.476 27.0489 112.324 26.0792 112.286 25.1276L110.536 25.166C110.288 25.166 109.641 25.3378 109.395 25.3378C109.128 25.3378 108.233 24.8428 107.892 24.6145C107.892 24.2709 108.007 24.0064 108.158 24.0064C108.292 24.0064 109.662 24.1013 110.536 24.0832L112.286 24.0448V14.8538C112.286 14.6075 112.153 14.4741 112.019 14.3588V14.3543Z" fill="#182233"/>
<path d="M134.474 23.0126H121.705C121.133 23.0126 119.992 23.3177 119.802 23.3177C119.422 23.3177 118.07 22.7843 117.403 22.4045C117.403 22.1197 117.519 21.6247 117.708 21.6247C118.088 21.6247 120.086 21.8145 121.705 21.8145H125.283C125.245 21.471 125.227 21.0731 125.206 20.8064L125.188 19.475H122.695C121.382 19.475 120.792 18.885 120.792 17.6666L120.81 15.422C120.81 15.2706 120.753 15.1937 120.638 15.1372C120.371 14.9857 120.03 14.7574 119.743 14.6037C119.761 14.337 119.933 13.8623 120.123 13.8804C120.618 13.8985 121.703 14.0318 122.159 14.1471C122.444 14.224 122.577 14.3189 122.577 14.5856L122.559 15.2909V17.6305C122.559 18.1255 122.749 18.3154 123.321 18.3154H127.813C128.554 18.3154 129.564 17.9921 129.944 17.9921C130.516 18.0102 131.258 18.069 131.409 18.277C131.56 18.4872 131.581 19.2467 131.332 19.4569L126.974 19.475L126.956 20.6165C126.938 20.8652 126.879 21.3964 126.804 21.8145H130.724C131.524 21.8145 132.304 21.471 132.684 21.471C133.256 21.471 134.397 21.6812 134.531 21.8711C134.702 22.1559 134.626 22.8046 134.474 23.0126ZM130.821 27.8658C130.821 29.9589 128.995 31.5006 126.196 31.5006C123.398 31.5006 121.572 29.9589 121.572 27.8658C121.572 25.7726 123.418 24.231 126.196 24.231C128.975 24.231 130.821 25.7522 130.821 27.8658ZM129.223 27.8658C129.223 26.4191 127.948 25.4674 126.196 25.4674C124.445 25.4674 123.19 26.4191 123.19 27.8658C123.19 29.3124 124.447 30.2641 126.196 30.2641C127.946 30.2641 129.223 29.3124 129.223 27.8658Z" fill="#182233"/>
<path d="M141.23 19.7387C139.727 21.9833 137.69 24.02 136.074 24.3251C135.959 24.2483 135.351 23.7532 135.523 23.6786C137.672 22.6886 140.299 18.4457 140.984 16.1807C141.099 15.8191 141.117 15.7241 141.002 15.6292C140.868 15.4777 140.527 15.1907 140.317 15.0008C140.412 14.8493 140.545 14.4492 140.679 14.4492C141.097 14.4492 142.754 15.0211 142.923 15.1161C143.113 15.211 143.228 15.3444 143.228 15.4574C143.246 15.6088 143.21 15.7806 143.039 16.2576C142.772 17.0374 142.333 17.9326 141.82 18.8074L143.246 19.9873C143.798 20.4258 144.655 20.8621 145.055 21.2441C145.511 21.6442 145.988 22.3111 146.196 22.6705C146.386 22.9937 145.568 23.4503 145.322 23.5068C144.103 22.345 142.677 20.939 141.23 19.7387ZM150.821 29.4834C150.993 29.6733 150.993 30.4735 150.744 30.7199H142.656C141.325 30.7199 140.64 30.0531 140.64 29.0065V26.4748C140.64 26.2849 140.602 26.2261 140.507 26.1696L139.804 25.7515C139.804 25.5412 139.976 25.0846 140.147 25.0846C140.681 25.0846 141.499 25.1411 141.879 25.1796C142.184 25.218 142.469 25.3129 142.469 25.6181L142.451 26.2081V28.9093C142.451 29.3659 142.661 29.5377 143.269 29.5377H147.209C147.971 29.5377 148.827 29.176 149.207 29.176C149.779 29.176 150.654 29.2913 150.826 29.4812L150.821 29.4834ZM153.22 20.5773H149.775L149.757 23.222C149.757 24.4969 149.377 25.9436 149.09 26.3437H148.387C148.197 25.982 148.025 24.8789 148.025 23.8323V14.8493C148.025 14.6029 147.892 14.4696 147.758 14.3543L146.712 13.5179C146.768 13.2128 146.978 12.833 147.15 12.833C147.627 12.833 149.092 13.2128 149.587 13.423C149.797 13.5179 149.854 13.6129 149.854 13.8231C149.854 14.013 149.797 14.5645 149.797 14.8697L149.779 19.4742H149.989C150.731 19.4742 151.474 19.0741 151.854 19.0741C152.311 19.0741 153.034 19.1894 153.224 19.3408C153.434 19.4742 153.414 20.2541 153.224 20.5773H153.22Z" fill="#182233"/>
<path d="M54.5159 13.681C54.6809 13.7149 54.864 13.8302 54.9635 13.9296C55.0629 14.0291 55.0968 14.1624 55.0471 14.2438C53.3043 15.4057 52.1605 17.7769 52.1605 21.9745C52.1605 26.1722 53.3043 28.5434 55.0471 29.7053C55.1307 29.9539 54.6832 30.2704 54.5159 30.2704C51.9435 28.7762 50.75 26.2219 50.75 21.9745C50.75 17.7272 51.9435 15.1729 54.5159 13.6787V13.681Z" fill="#182233"/>
<path d="M70.9558 24.6627H64.4865L64.4706 28.2138C64.4706 29.0434 64.222 30.3206 63.9734 30.6528H63.2771C63.1121 30.3545 62.9629 29.491 62.9629 28.6614V24.6627H59.8277C59.3304 24.6627 58.3336 24.9271 58.1685 24.9271C57.8363 24.9271 56.6586 24.4796 56.0776 24.1473C56.0776 23.8986 56.1771 23.4669 56.3421 23.4669C56.6744 23.4669 58.4149 23.6319 59.8254 23.6319H67.6895C68.3857 23.6319 69.0661 23.3177 69.3984 23.3177C69.8957 23.3177 70.8926 23.5008 71.0078 23.6816C71.157 23.9303 71.0915 24.4773 70.9581 24.6604L70.9558 24.6627ZM57.0881 21.4619C59.2603 21.2132 63.3585 18.7087 65.2821 16.9998H61.8485C61.2021 16.9998 60.82 17.2326 60.3883 17.2326C59.9566 17.2326 58.546 16.5861 58.4308 16.5025C58.4308 16.3533 58.5641 15.8379 58.6455 15.8379C58.8105 15.8379 60.5872 15.9713 61.7649 15.9713H65.316C65.8133 15.9713 66.3604 15.8379 66.5435 15.8379C66.8916 15.8379 67.5381 16.0029 67.7212 16.0526C67.8703 16.0865 67.9359 16.2516 67.9359 16.3849C67.9359 16.5499 67.7709 16.7488 67.6375 16.8822C66.8418 17.6462 65.9128 18.408 64.934 19.0884L66.2451 19.4862C66.8599 19.6852 67.6217 19.7191 68.0534 19.8999C68.5168 20.0988 69.4798 20.5803 69.6629 20.8629C69.8279 21.1454 69.3645 21.6269 69.1814 21.7422C67.6375 21.1273 65.7636 20.4311 63.9214 19.7507C61.6654 21.1612 59.2264 22.14 57.452 22.1242C57.3028 22.1084 56.8213 21.6766 57.0881 21.4596V21.4619Z" fill="#182233"/>
<path d="M72.6504 30.2711C72.4854 30.2711 72.0355 29.9568 72.1192 29.7059C73.862 28.5441 75.0058 26.1729 75.0058 21.9752C75.0058 17.7776 73.862 15.4064 72.1192 14.2445C72.0694 14.1609 72.0853 14.0297 72.1847 13.9303C72.2842 13.8308 72.4831 13.7155 72.6481 13.6816C75.2205 15.1758 76.414 17.7301 76.414 21.9775C76.414 26.2249 75.2205 28.7792 72.6481 30.2733L72.6504 30.2711Z" fill="#182233"/>
<defs>
<radialGradient id="paint0_radial_981_2282" cx="0" cy="0" r="1" gradientUnits="userSpaceOnUse" gradientTransform="translate(33.2936 16.8038) scale(8.80283 8.80286)">
<stop offset="0.18" stop-color="#F4BA19"/>
<stop offset="1" stop-color="#EF7E21"/>
</radialGradient>
<linearGradient id="paint1_linear_981_2282" x1="21.7184" y1="39.9828" x2="21.7184" y2="19.8814" gradientUnits="userSpaceOnUse">
<stop offset="0.39" stop-color="#003B20"/>
<stop offset="0.79" stop-color="#11562E"/>
</linearGradient>
<radialGradient id="paint2_radial_981_2282" cx="0" cy="0" r="1" gradientUnits="userSpaceOnUse" gradientTransform="translate(17.1571 11.8074) scale(14.7276 14.7276)">
<stop offset="0.22" stop-color="#359839"/>
<stop offset="0.32" stop-color="#308B37"/>
<stop offset="0.55" stop-color="#277535"/>
<stop offset="0.78" stop-color="#226733"/>
<stop offset="0.97" stop-color="#216333"/>
</radialGradient>
</defs>
</svg>
