<svg width="263" height="72" viewBox="0 0 263 72" fill="none" xmlns="http://www.w3.org/2000/svg">
<path d="M57.0749 43.8988C65.4092 43.8988 72.1654 37.1426 72.1654 28.8083C72.1654 20.474 65.4092 13.7178 57.0749 13.7178C48.7406 13.7178 41.9844 20.474 41.9844 28.8083C41.9844 37.1426 48.7406 43.8988 57.0749 43.8988Z" fill="url(#paint0_radial_397_3913)"/>
<path d="M37.6527 37.5405C37.8746 38.7017 37.9984 39.8991 37.9984 41.1222C37.9984 51.5369 29.5552 59.9854 19.1353 59.9854C12.8235 59.9854 7.23419 56.8785 3.8125 52.115C9.72692 63.9025 21.917 72 36.0012 72C52.4903 72 66.3835 60.9092 70.6464 45.7825C66.9874 48.7655 62.3219 50.5564 57.2332 50.5564C48.4184 50.5564 40.8628 45.189 37.6527 37.5405Z" fill="url(#paint1_linear_397_3913)"/>
<path d="M19.1367 22.2591C26.8781 22.2591 33.5305 26.9245 36.4361 33.6028C36.1523 32.2196 36.0026 30.7849 36.0026 29.3192C36.0026 17.5936 45.509 8.08717 57.2346 8.08717C57.7662 8.08717 58.2926 8.11297 58.819 8.15426C52.6053 3.06043 44.6626 0 36.0026 0C16.1176 0 0 16.1176 0 36.0026C0 37.5251 0.103217 39.0217 0.28901 40.4926C0.62447 30.372 8.92839 22.2642 19.1367 22.2642V22.2591Z" fill="url(#paint2_radial_397_3913)"/>
<path d="M139.704 41.7356C139.344 41.6387 138.561 40.4645 138.987 40.3987C141.924 39.9763 147.307 35.179 151.058 29.6997H145.35C144.796 29.6997 143.556 30.0601 143.067 30.0601C142.447 30.0601 140.653 28.917 140.262 28.6883C140.262 28.5256 140.46 27.5801 140.653 27.6111C140.948 27.6421 143.653 27.8087 145.319 27.8087H151.124C151.713 27.8087 152.526 27.5491 152.918 27.5491C153.34 27.5491 154.483 27.6808 154.972 27.8087C155.231 27.8746 155.394 28.3318 155.394 28.5915C155.394 28.8201 154.972 29.3742 154.708 29.7346C153.631 31.3001 152.492 32.7687 151.283 34.1056L152.096 34.8225C152.976 35.6053 154.053 36.2911 154.739 36.9111C155.39 37.5001 156.208 38.6743 156.467 39.2284C156.793 39.8174 155.359 40.5343 154.968 40.6312C153.662 39.2594 151.837 37.1746 150.008 35.4425C146.419 39.0308 142.633 41.348 139.7 41.7394L139.704 41.7356ZM146.849 25.6852C146.229 25.6542 144.369 24.3483 143.784 23.891C143.815 23.3679 144.044 22.7828 144.242 22.8138C144.73 22.8797 146.722 23.2362 147.83 23.302L152.526 23.5617C152.852 23.5927 153.05 24.8676 152.526 25.5186C151.286 25.6154 148.221 25.7782 146.849 25.6813V25.6852ZM162.768 47.6372C162.768 51.2255 160.028 53.8024 155.82 53.8024C151.612 53.8024 148.872 51.2255 148.872 47.6372C148.872 44.0489 151.647 41.4372 155.82 41.4372C159.994 41.4372 162.768 44.0141 162.768 47.6372ZM160.028 47.6372C160.028 45.1572 158.265 43.5607 155.82 43.5607C153.375 43.5607 151.643 45.1611 151.643 47.6372C151.643 50.1134 153.406 51.6828 155.82 51.6828C158.234 51.6828 160.028 50.0824 160.028 47.6372ZM163.977 23.7283C163.977 24.0538 163.88 24.9993 163.88 25.5224L163.814 36.9731C163.814 39.1587 163.194 41.5728 162.706 42.2587H161.466C161.141 41.6387 160.877 39.8135 160.877 38.0194V34.4621L158.626 34.4931C158.199 34.4931 157.223 34.7876 156.832 34.7876C156.409 34.7876 154.906 33.939 154.386 33.5825C154.386 32.9625 154.584 32.5052 154.844 32.5052C155.041 32.5052 157.258 32.668 158.63 32.6021L160.881 32.5711V25.4604C160.881 25.0381 160.652 24.8094 160.424 24.6118L158.595 23.209C158.692 22.6549 159.083 22.0039 159.346 22.0039C160.195 22.0039 162.675 22.6549 163.524 23.0463C163.884 23.209 163.981 23.3718 163.981 23.7322L163.977 23.7283Z" fill="white"/>
<path d="M175.947 39.581C174.642 39.6779 173.371 39.9724 172.751 39.9724C172.196 39.9724 170.205 38.992 169.422 38.4728C169.422 37.8527 169.716 37.2327 169.976 37.2327C170.205 37.2327 171.704 37.4614 173.01 37.4924C173.533 37.5234 174.545 37.5234 175.327 37.5234C178.982 37.4265 185.833 36.9034 189.487 36.0547C189.684 36.2834 189.909 37.2289 189.909 37.783C187.886 38.2403 184.852 38.6975 181.884 39.054V40.2281C181.884 41.7278 181.167 43.7854 179.993 44.665L178.493 44.3705C178.788 43.3282 178.951 41.2705 178.951 40.294V39.3485C177.842 39.4454 176.831 39.5113 175.947 39.5771V39.581ZM173.634 29.3354C173.634 26.0068 176.44 23.6585 180.617 23.6585C184.794 23.6585 187.631 26.0068 187.631 29.3354C187.631 32.6641 184.825 35.0123 180.617 35.0123C176.409 35.0123 173.634 32.6292 173.634 29.3354ZM176.405 29.3354C176.405 31.4899 178.199 32.8578 180.613 32.8578C183.027 32.8578 184.821 31.4861 184.821 29.3354C184.821 27.1848 183.058 25.7782 180.613 25.7782C178.168 25.7782 176.405 27.1499 176.405 29.3354ZM196.764 52.6631H182.899C180.617 52.6631 179.443 51.52 179.443 49.7258V47.6721C179.443 47.3466 179.377 47.2458 179.214 47.1489L178.009 46.4321C178.009 46.0717 178.303 45.2889 178.598 45.2889C179.512 45.2889 180.915 45.3858 181.566 45.4517C182.089 45.5176 182.578 45.6803 182.578 46.2034L182.547 47.2148V49.598C182.547 50.3497 182.907 50.6752 183.949 50.6752H190.704C192.009 50.6752 193.478 50.0552 194.129 50.0552C195.109 50.0552 196.609 50.2528 196.904 50.5783C197.198 50.9038 197.198 52.2407 196.772 52.667L196.764 52.6631ZM192.033 24.6079L190.239 23.1741C190.304 22.651 190.696 22 190.99 22C191.804 22 194.253 22.651 195.102 23.0114C195.462 23.1741 195.559 23.3369 195.559 23.6973C195.559 24.0228 195.462 24.9683 195.462 25.4914L195.396 41.5728C195.396 43.7583 194.745 46.2383 194.253 46.9242H193.11C192.815 46.3701 192.556 44.7077 192.49 43.0763L189.491 43.1422C189.064 43.1422 187.956 43.4367 187.534 43.4367C187.077 43.4367 185.542 42.588 184.957 42.1967C184.957 41.6077 185.155 41.1543 185.414 41.1543C185.643 41.1543 187.991 41.317 189.491 41.286L192.49 41.2201V25.4643C192.49 25.0419 192.261 24.8133 192.033 24.6156V24.6079Z" fill="white"/>
<path d="M230.526 39.4494H208.636C207.656 39.4494 205.699 39.9726 205.373 39.9726C204.722 39.9726 202.405 39.0581 201.262 38.4071C201.262 37.9188 201.459 37.0702 201.785 37.0702C202.436 37.0702 205.861 37.3957 208.636 37.3957H214.77C214.704 36.8067 214.673 36.1247 214.638 35.6674L214.607 33.385H210.333C208.082 33.385 207.07 32.3736 207.07 30.285L207.101 26.4371C207.101 26.1775 207.005 26.0457 206.807 25.9488C206.35 25.6892 205.765 25.2978 205.272 25.0343C205.303 24.5771 205.598 23.7633 205.923 23.7943C206.772 23.8253 208.632 24.0539 209.415 24.2516C209.903 24.3833 210.132 24.5461 210.132 25.0033L210.101 26.2123V30.223C210.101 31.0716 210.426 31.3971 211.407 31.3971H219.106C220.377 31.3971 222.109 30.843 222.76 30.843C223.741 30.874 225.012 30.9747 225.271 31.3312C225.531 31.6916 225.566 32.9936 225.14 33.354L217.669 33.385L217.638 35.3419C217.607 35.7682 217.506 36.6788 217.378 37.3957H224.097C225.469 37.3957 226.806 36.8067 227.457 36.8067C228.437 36.8067 230.394 37.167 230.623 37.4925C230.917 37.9808 230.786 39.0929 230.526 39.4494ZM224.264 47.7691C224.264 51.3574 221.133 54.0002 216.336 54.0002C211.538 54.0002 208.407 51.3574 208.407 47.7691C208.407 44.1809 211.573 41.5381 216.336 41.5381C221.098 41.5381 224.264 44.146 224.264 47.7691ZM221.524 47.7691C221.524 45.2891 219.339 43.6577 216.336 43.6577C213.332 43.6577 211.182 45.2891 211.182 47.7691C211.182 50.2491 213.336 51.8805 216.336 51.8805C219.335 51.8805 221.524 50.2491 221.524 47.7691Z" fill="white"/>
<path d="M242.11 33.8382C239.533 37.6861 236.042 41.1775 233.271 41.7006C233.073 41.5689 232.031 40.7203 232.325 40.5924C236.011 38.8951 240.513 31.6217 241.688 27.7389C241.885 27.1189 241.916 26.9562 241.719 26.7934C241.49 26.5338 240.905 26.0417 240.544 25.7162C240.707 25.4565 240.936 24.7706 241.164 24.7706C241.881 24.7706 244.722 25.751 245.012 25.9138C245.338 26.0765 245.535 26.3052 245.535 26.4989C245.566 26.7585 245.504 27.053 245.21 27.8707C244.753 29.2076 244.001 30.7421 243.121 32.2417L245.566 34.2645C246.512 35.0162 247.981 35.7641 248.666 36.419C249.449 37.1049 250.267 38.248 250.623 38.8641C250.949 39.4183 249.546 40.201 249.124 40.2979C247.035 38.3061 244.59 35.8959 242.11 33.8382ZM258.552 50.5435C258.846 50.869 258.846 52.2407 258.42 52.6631H244.555C242.273 52.6631 241.099 51.52 241.099 49.7258V45.3858C241.099 45.0603 241.033 44.9596 240.87 44.8627L239.665 44.1458C239.665 43.7854 239.959 43.0027 240.254 43.0027C241.168 43.0027 242.571 43.0995 243.222 43.1654C243.745 43.2313 244.233 43.394 244.233 43.9172L244.202 44.9285V49.5592C244.202 50.342 244.563 50.6365 245.605 50.6365H252.359C253.665 50.6365 255.134 50.0165 255.785 50.0165C256.765 50.0165 258.265 50.2141 258.559 50.5396L258.552 50.5435ZM262.663 35.2759H256.758L256.727 39.8096C256.727 41.9951 256.076 44.4752 255.583 45.161H254.378C254.053 44.541 253.758 42.65 253.758 40.8559V25.4565C253.758 25.0341 253.53 24.8055 253.301 24.6079L251.507 23.1741C251.604 22.651 251.964 22 252.259 22C253.076 22 255.587 22.651 256.436 23.0114C256.796 23.1741 256.893 23.3369 256.893 23.6973C256.893 24.0228 256.796 24.9683 256.796 25.4914L256.765 33.3848H257.126C258.397 33.3848 259.672 32.699 260.323 32.699C261.105 32.699 262.345 32.8966 262.671 33.1562C263.031 33.3848 262.996 34.7217 262.671 35.2759H262.663Z" fill="white"/>
<path d="M93.4558 23.4531C93.7387 23.5112 94.0525 23.7088 94.223 23.8793C94.3935 24.0498 94.4517 24.2785 94.3664 24.418C91.3788 26.4097 89.418 30.4746 89.418 37.6706C89.418 44.8665 91.3788 48.9314 94.3664 50.9232C94.5098 51.3494 93.7425 51.8919 93.4558 51.8919C89.046 49.3305 87 44.9518 87 37.6706C87 30.3894 89.046 26.0106 93.4558 23.4492V23.4531Z" fill="white"/>
<path d="M121.638 42.278H110.548L110.521 48.3657C110.521 49.7878 110.095 51.9772 109.668 52.5468H108.475C108.192 52.0353 107.936 50.5551 107.936 49.1329V42.278H102.561C101.709 42.278 100 42.7314 99.7172 42.7314C99.1476 42.7314 97.1287 41.9641 96.1328 41.3945C96.1328 40.9683 96.3033 40.2281 96.5862 40.2281C97.1558 40.2281 100.14 40.511 102.558 40.511H116.039C117.232 40.511 118.399 39.9724 118.968 39.9724C119.821 39.9724 121.53 40.2863 121.727 40.5963C121.983 41.0225 121.871 41.9603 121.642 42.2741L121.638 42.278ZM97.865 36.791C101.589 36.3647 108.614 32.0712 111.912 29.1417H106.026C104.918 29.1417 104.263 29.5408 103.522 29.5408C102.782 29.5408 100.364 28.4325 100.167 28.2892C100.167 28.0334 100.395 27.1499 100.535 27.1499C100.818 27.1499 103.863 27.3785 105.882 27.3785H111.97C112.823 27.3785 113.76 27.1499 114.074 27.1499C114.671 27.1499 115.779 27.4328 116.093 27.518C116.349 27.5762 116.461 27.859 116.461 28.0877C116.461 28.3705 116.178 28.7115 115.95 28.9402C114.586 30.2499 112.993 31.5558 111.315 32.7222L113.563 33.4042C114.617 33.7452 115.923 33.8033 116.663 34.1133C117.457 34.4543 119.108 35.2797 119.422 35.7641C119.705 36.2485 118.91 37.0738 118.596 37.2715C115.95 36.2175 112.737 35.024 109.579 33.8576C105.712 36.2756 101.531 37.9535 98.4888 37.9264C98.2331 37.8992 97.4077 37.1591 97.865 36.7871V36.791Z" fill="white"/>
<path d="M124.543 51.892C124.261 51.892 123.489 51.3533 123.633 50.9232C126.621 48.9314 128.581 44.8665 128.581 37.6706C128.581 30.4747 126.621 26.4098 123.633 24.418C123.548 24.2746 123.575 24.0499 123.745 23.8794C123.916 23.7089 124.257 23.5113 124.54 23.4531C128.949 26.0145 130.995 30.3933 130.995 37.6745C130.995 44.9557 128.949 49.3344 124.54 51.8958L124.543 51.892Z" fill="white"/>
<defs>
<radialGradient id="paint0_radial_397_3913" cx="0" cy="0" r="1" gradientUnits="userSpaceOnUse" gradientTransform="translate(57.0749 28.8083) scale(15.0905)">
<stop offset="0.18" stop-color="#F4BA19"/>
<stop offset="1" stop-color="#EF7E21"/>
</radialGradient>
<linearGradient id="paint1_linear_397_3913" x1="37.2295" y1="68.5422" x2="37.2295" y2="34.0827" gradientUnits="userSpaceOnUse">
<stop offset="0.39" stop-color="#003B20"/>
<stop offset="0.79" stop-color="#11562E"/>
</linearGradient>
<radialGradient id="paint2_radial_397_3913" cx="0" cy="0" r="1" gradientUnits="userSpaceOnUse" gradientTransform="translate(29.4121 20.2411) scale(25.2472 25.2472)">
<stop offset="0.22" stop-color="#359839"/>
<stop offset="0.32" stop-color="#308B37"/>
<stop offset="0.55" stop-color="#277535"/>
<stop offset="0.78" stop-color="#226733"/>
<stop offset="0.97" stop-color="#216333"/>
</radialGradient>
</defs>
</svg>
