<svg width="64" height="64" viewBox="0 0 64 64" fill="none" xmlns="http://www.w3.org/2000/svg">
<g clip-path="url(#clip0_1012_3559)">
<path d="M49.3787 64H14.6213C6.57289 64 0 57.4122 0 49.3787V14.6213C0 6.5878 6.5878 0 14.6213 0H49.3787C57.4271 0 64 6.5878 64 14.6213V49.3787C64 57.4271 57.4271 64 49.3787 64Z" fill="white"/>
<path d="M47.2184 12.832H16.5747C12.2374 12.832 8.70508 16.3793 8.70508 20.7016V39.7496C8.70508 44.0868 12.2524 47.6192 16.5747 47.6192H27.3953L29.2584 50.8386L31.0917 54.0132C31.4196 54.5945 32.2542 54.5945 32.597 54.0132L34.4303 50.8386L36.2933 47.6192H47.2333C51.5705 47.6192 55.1029 44.0719 55.1029 39.7496V20.7165C55.1029 16.3793 51.5556 12.832 47.2184 12.832Z" fill="url(#paint0_linear_1012_3559)"/>
<path d="M34.0405 26.7832C31.6707 26.7832 29.748 28.6761 29.748 31.0161C29.748 33.3561 31.6707 35.249 34.0405 35.249C36.4104 35.249 38.3331 33.3561 38.3331 31.0161C38.3331 28.6761 36.4253 26.7832 34.0405 26.7832ZM34.0405 33.0431C32.9078 33.0431 31.9837 32.1339 31.9837 31.0161C31.9837 29.8982 32.9078 28.9891 34.0405 28.9891C35.1733 28.9891 36.0974 29.8982 36.0974 31.0161C36.0974 32.1339 35.1882 33.0431 34.0405 33.0431Z" fill="white"/>
<path d="M20.4631 26.7838C19.539 26.7838 18.6746 27.1415 18.0039 27.7526V24.25H15.6191V35.0558H18.0039V34.2957C18.6746 34.8919 19.5241 35.2645 20.4631 35.2645C22.5945 35.2645 24.3234 33.3716 24.3234 31.0316C24.3234 28.6916 22.6094 26.7838 20.4631 26.7838ZM19.9862 33.1331C19.1068 33.1331 18.3467 32.6115 18.0188 31.8513C17.9144 31.5979 17.8399 31.3148 17.8399 31.0167C17.8399 30.7186 17.8995 30.4354 18.0188 30.182C18.3467 29.4219 19.1068 28.9002 19.9862 28.9002C21.1785 28.9002 22.1324 29.8392 22.1324 31.0167C22.1324 32.1941 21.1785 33.1331 19.9862 33.1331Z" fill="white"/>
<path d="M45.7705 26.9628V27.6335C45.0998 27.1118 44.2651 26.7988 43.3709 26.7988C41.1799 26.7988 39.4062 28.6321 39.4062 30.8827C39.4062 33.1332 41.1799 34.9665 43.3709 34.9665C44.28 34.9665 45.1147 34.6535 45.7705 34.1319V35.2646C45.7705 35.2646 45.532 36.3824 43.8627 36.3824V38.484C43.8627 38.484 45.6661 38.6926 47.2758 37.0829C47.2758 37.0829 48.0211 36.293 48.185 35.2497V26.9628H45.7705V26.9628ZM43.818 32.9544C42.6107 32.9544 41.6419 32.0154 41.6419 30.8678C41.6419 29.7201 42.6256 28.7811 43.818 28.7811C44.6675 28.7811 45.4128 29.2581 45.7705 29.9437C45.9195 30.2269 45.994 30.5399 45.994 30.8678C45.994 31.1957 45.9046 31.5236 45.7705 31.7918C45.4128 32.4924 44.6675 32.9544 43.818 32.9544Z" fill="white"/>
<path d="M24.5918 24.0417V26.2028C24.5918 26.2028 25.6947 26.3519 25.9034 27.425V35.0561H28.3626V27.425V27.3654C28.2136 26.2922 27.5727 25.4874 27.5727 25.4874C26.1717 23.833 24.5918 24.0417 24.5918 24.0417Z" fill="white"/>
</g>
<defs>
<linearGradient id="paint0_linear_1012_3559" x1="31.9012" y1="54.4461" x2="31.9012" y2="12.8362" gradientUnits="userSpaceOnUse">
<stop stop-color="#00D44D"/>
<stop offset="1" stop-color="#00E56D"/>
</linearGradient>
<clipPath id="clip0_1012_3559">
<rect width="64" height="64" fill="white"/>
</clipPath>
</defs>
</svg>
